<svg width="108" height="31" fill="none" xmlns="http://www.w3.org/2000/svg"><path d="M15.517 10.926a4.568 4.568 0 0 0-4.572 4.564v4.564h4.572a4.568 4.568 0 0 0 4.573-4.564 4.568 4.568 0 0 0-4.573-4.564Z" fill="#fff"/><path d="M26.054 4.97A14.82 14.82 0 0 0 15.517.614c-3.98 0-7.725 1.548-10.539 4.358A14.774 14.774 0 0 0 .613 15.38v4.629c0 .016.003.03.003.045h5.136l.003-.045v-4.52c0-5.372 4.38-9.744 9.761-9.744 5.382 0 9.761 4.372 9.761 9.745 0 5.372-4.379 9.744-9.761 9.744a.584.584 0 0 0-.137.017h-4.368a.627.627 0 0 0-.068.005v5.124a.617.617 0 0 0 .068.005h4.856c.066 0 .125-.011.18-.028a14.813 14.813 0 0 0 10.007-4.347 14.77 14.77 0 0 0 4.365-10.52c0-3.974-1.55-7.711-4.365-10.52ZM102.787 21.715c-.896 0-1.691-.2-2.386-.603a4.496 4.496 0 0 1-1.621-1.618 4.351 4.351 0 0 1-.589-2.222c0-.593.112-1.157.337-1.694.223-.537.54-1.009.949-1.417a4.522 4.522 0 0 1 1.462-.972c.56-.24 1.176-.36 1.848-.36.891 0 1.681.2 2.37.603a4.395 4.395 0 0 1 1.63 1.618 4.3 4.3 0 0 1 .596 2.222c0 .592-.114 1.157-.344 1.693a4.47 4.47 0 0 1-.95 1.417c-.408.414-.893.74-1.453.981a4.736 4.736 0 0 1-1.849.352Zm0-1.878a2.54 2.54 0 0 0 1.261-.31c.375-.212.669-.509.882-.889.213-.385.319-.84.319-1.366 0-.526-.106-.981-.319-1.367a2.226 2.226 0 0 0-.874-.889 2.554 2.554 0 0 0-1.269-.31c-.476 0-.901.104-1.277.31a2.232 2.232 0 0 0-.874.89c-.207.385-.31.84-.31 1.366 0 .525.106.98.319 1.366a2.3 2.3 0 0 0 .874.889c.369.207.792.31 1.268.31ZM91.856 21.464V13.08h2.15v1.098c.292-.491.656-.84 1.093-1.048.442-.206.918-.31 1.428-.31.18 0 .345.009.496.025.151.017.297.042.437.076l-.27 2.213a2.883 2.883 0 0 0-.545-.134 3.094 3.094 0 0 0-.555-.05c-.605 0-1.103.182-1.495.545-.392.358-.589.86-.589 1.509v4.46h-2.15ZM81.55 21.464V9.727h4.412c.846 0 1.596.148 2.252.444.655.29 1.168.713 1.537 1.266.376.553.563 1.218.563 1.995 0 .788-.173 1.456-.52 2.004-.342.548-.84.967-1.496 1.258-.656.285-1.451.427-2.386.427h-2.177v4.343h-2.184Zm2.185-6.195h2.168c.7 0 1.246-.146 1.638-.437.393-.29.589-.743.589-1.358 0-.615-.202-1.076-.605-1.383-.398-.313-.933-.47-1.605-.47h-2.185v3.647ZM74.959 21.709a6.686 6.686 0 0 1-2.017-.294c-.616-.195-1.14-.464-1.57-.805l.747-1.526a5.38 5.38 0 0 0 1.37.705c.498.173.985.26 1.461.26.504 0 .897-.084 1.177-.252.28-.168.42-.402.42-.704a.668.668 0 0 0-.37-.629c-.246-.134-.711-.274-1.395-.42-1.086-.212-1.876-.524-2.369-.938-.493-.42-.74-.995-.74-1.727 0-.52.143-.978.43-1.375.29-.397.688-.705 1.192-.922.51-.224 1.095-.336 1.756-.336.644 0 1.252.09 1.823.268.578.18 1.073.43 1.488.755l-.715 1.534a3.481 3.481 0 0 0-.747-.478 4.301 4.301 0 0 0-1.807-.419c-.442 0-.8.078-1.075.235-.27.156-.403.377-.403.662 0 .285.126.498.378.637.252.135.708.277 1.37.428 1.12.24 1.92.559 2.402.956.482.397.723.953.723 1.668 0 .548-.149 1.026-.446 1.434-.296.402-.711.718-1.243.947-.527.224-1.14.336-1.84.336ZM63.812 25.222c-.33 0-.655-.036-.975-.109a3.577 3.577 0 0 1-.924-.352l.479-1.82c.174.107.367.188.58.244.213.056.406.084.58.084.358 0 .65-.084.873-.252.224-.162.395-.422.513-.78l.227-.67-3.294-8.485h2.344l2.168 6.246 2.109-6.246h2.277l-3.58 9.466c-.268.682-.573 1.215-.915 1.601-.342.391-.72.668-1.135.83a3.57 3.57 0 0 1-1.327.243ZM55.309 21.715c-.823 0-1.554-.19-2.193-.57a4.058 4.058 0 0 1-1.496-1.576c-.364-.67-.546-1.436-.546-2.297 0-.649.104-1.244.311-1.786a4.214 4.214 0 0 1 .874-1.409c.38-.396.829-.704 1.344-.922a4.374 4.374 0 0 1 1.706-.327c.812 0 1.495.173 2.05.52.555.346.97.796 1.244 1.35l-.303.46V13.08h1.89v8.384H58.3v-2.08l.303.462a3.308 3.308 0 0 1-1.244 1.35c-.555.346-1.238.52-2.05.52Zm.32-1.878c.464 0 .879-.103 1.243-.31.364-.212.652-.509.865-.889.213-.385.32-.84.32-1.366 0-.526-.107-.981-.32-1.367a2.243 2.243 0 0 0-.865-.889 2.473 2.473 0 0 0-1.244-.31 2.52 2.52 0 0 0-1.252.31 2.244 2.244 0 0 0-.865.89c-.207.385-.311.84-.311 1.366 0 .525.104.98.31 1.366.214.38.502.677.866.889.37.207.787.31 1.252.31ZM41.797 21.464V9.727h4.411c.846 0 1.596.148 2.252.444.655.29 1.168.713 1.537 1.266.376.553.563 1.218.563 1.995 0 .788-.173 1.456-.52 2.004-.342.548-.84.967-1.496 1.258-.656.285-1.451.427-2.386.427H43.98v4.343h-2.184Zm2.184-6.195h2.168c.7 0 1.246-.146 1.639-.437.392-.29.588-.743.588-1.358 0-.615-.202-1.076-.605-1.383-.398-.313-.933-.47-1.605-.47h-2.185v3.647Z" fill="#fff"/></svg>
